<svg width="14" height="14" fill="none" xmlns="http://www.w3.org/2000/svg"><path d="M13.696 6.372a.998.998 0 0 0 .254-1.029.998.998 0 0 0-.81-.683l-3.39-.493a.443.443 0 0 1-.334-.242L7.9.853a.998.998 0 0 0-.9-.56.998.998 0 0 0-.9.56L4.584 3.925a.443.443 0 0 1-.334.242L.86 4.66a.998.998 0 0 0-.81.683.998.998 0 0 0 .254 1.03l2.452 2.39a.444.444 0 0 1 .128.393l-.578 3.375a.983.983 0 0 0 .218.814c.3.356.821.464 1.238.245l3.032-1.594a.454.454 0 0 1 .412 0l3.032 1.594a.994.994 0 0 0 1.238-.245.983.983 0 0 0 .219-.814l-.58-3.375a.443.443 0 0 1 .128-.393l2.453-2.39z" fill="#E6E6E6"/></svg>